<mxfile host="app.diagrams.net" modified="2023-10-18T18:35:11.204Z" agent="Mozilla/5.0 (X11; Linux x86_64; rv:109.0) Gecko/20100101 Firefox/114.0" etag="UuzQkxrSayTHmfWv4VC6" version="22.0.4" type="github">
  <diagram name="Página-1" id="5qE9PdsEFicO6LJyEHdg">
    <mxGraphModel dx="2049" dy="1136" grid="1" gridSize="10" guides="1" tooltips="1" connect="1" arrows="1" fold="1" page="1" pageScale="1" pageWidth="827" pageHeight="1169" math="0" shadow="0">
      <root>
        <mxCell id="0" />
        <mxCell id="1" parent="0" />
        <mxCell id="TgXWoHeMjRvl59_JWQMc-1" value="Empresa" style="rounded=1;whiteSpace=wrap;html=1;fillColor=#dae8fc;strokeColor=#6c8ebf;" vertex="1" parent="1">
          <mxGeometry x="40" y="40" width="120" height="60" as="geometry" />
        </mxCell>
        <mxCell id="TgXWoHeMjRvl59_JWQMc-2" value="Empresa" style="rounded=1;whiteSpace=wrap;html=1;fillColor=#dae8fc;strokeColor=#6c8ebf;" vertex="1" parent="1">
          <mxGeometry x="354" y="500" width="120" height="60" as="geometry" />
        </mxCell>
        <mxCell id="TgXWoHeMjRvl59_JWQMc-3" value="Cliente" style="rounded=1;whiteSpace=wrap;html=1;fillColor=#dae8fc;strokeColor=#6c8ebf;" vertex="1" parent="1">
          <mxGeometry x="200" y="680" width="120" height="60" as="geometry" />
        </mxCell>
        <mxCell id="TgXWoHeMjRvl59_JWQMc-4" value="Proveedor" style="rounded=1;whiteSpace=wrap;html=1;fillColor=#dae8fc;strokeColor=#6c8ebf;" vertex="1" parent="1">
          <mxGeometry x="519" y="680" width="120" height="60" as="geometry" />
        </mxCell>
        <mxCell id="TgXWoHeMjRvl59_JWQMc-5" value="" style="triangle;whiteSpace=wrap;html=1;direction=south;fillColor=#f8cecc;strokeColor=#b85450;" vertex="1" parent="1">
          <mxGeometry x="389" y="600" width="50" height="40" as="geometry" />
        </mxCell>
        <mxCell id="TgXWoHeMjRvl59_JWQMc-6" value="" style="ellipse;whiteSpace=wrap;html=1;fillColor=#f8cecc;strokeColor=#b85450;" vertex="1" parent="1">
          <mxGeometry x="404" y="580" width="20" height="20" as="geometry" />
        </mxCell>
        <mxCell id="TgXWoHeMjRvl59_JWQMc-7" value="" style="shape=requiredInterface;html=1;verticalLabelPosition=bottom;sketch=0;rotation=90;fillColor=#f8cecc;strokeColor=#0A0504;" vertex="1" parent="1">
          <mxGeometry x="401.5" y="586.25" width="25" height="93.75" as="geometry" />
        </mxCell>
        <mxCell id="TgXWoHeMjRvl59_JWQMc-8" value="" style="endArrow=none;html=1;rounded=0;" edge="1" parent="1" source="TgXWoHeMjRvl59_JWQMc-3" target="TgXWoHeMjRvl59_JWQMc-5">
          <mxGeometry width="50" height="50" relative="1" as="geometry">
            <mxPoint x="344" y="680" as="sourcePoint" />
            <mxPoint x="394" y="630" as="targetPoint" />
          </mxGeometry>
        </mxCell>
        <mxCell id="TgXWoHeMjRvl59_JWQMc-9" value="" style="endArrow=none;html=1;rounded=0;" edge="1" parent="1" source="TgXWoHeMjRvl59_JWQMc-4" target="TgXWoHeMjRvl59_JWQMc-5">
          <mxGeometry width="50" height="50" relative="1" as="geometry">
            <mxPoint x="494" y="680" as="sourcePoint" />
            <mxPoint x="544" y="630" as="targetPoint" />
          </mxGeometry>
        </mxCell>
        <mxCell id="TgXWoHeMjRvl59_JWQMc-11" value="" style="endArrow=none;html=1;rounded=0;" edge="1" parent="1" target="TgXWoHeMjRvl59_JWQMc-2">
          <mxGeometry width="50" height="50" relative="1" as="geometry">
            <mxPoint x="414" y="580" as="sourcePoint" />
            <mxPoint x="464" y="530" as="targetPoint" />
          </mxGeometry>
        </mxCell>
        <mxCell id="TgXWoHeMjRvl59_JWQMc-12" value="Cliente" style="rounded=1;whiteSpace=wrap;html=1;fillColor=#dae8fc;strokeColor=#6c8ebf;" vertex="1" parent="1">
          <mxGeometry x="40" y="120" width="120" height="60" as="geometry" />
        </mxCell>
        <mxCell id="TgXWoHeMjRvl59_JWQMc-13" value="Provee" style="rhombus;whiteSpace=wrap;html=1;fillColor=#f8cecc;strokeColor=#b85450;" vertex="1" parent="1">
          <mxGeometry x="200" y="40" width="40" height="40" as="geometry" />
        </mxCell>
        <mxCell id="TgXWoHeMjRvl59_JWQMc-17" value="NIF" style="ellipse;whiteSpace=wrap;html=1;fillColor=#fff2cc;strokeColor=#d6b656;" vertex="1" parent="1">
          <mxGeometry x="394" y="400" width="40" height="40" as="geometry" />
        </mxCell>
        <mxCell id="TgXWoHeMjRvl59_JWQMc-18" value="&lt;font style=&quot;font-size: 8px;&quot;&gt;Dirección&lt;/font&gt;" style="ellipse;whiteSpace=wrap;html=1;fillColor=#fff2cc;strokeColor=#d6b656;" vertex="1" parent="1">
          <mxGeometry x="434" y="400" width="40" height="40" as="geometry" />
        </mxCell>
        <mxCell id="TgXWoHeMjRvl59_JWQMc-19" value="&lt;font style=&quot;font-size: 8px;&quot;&gt;Teléfono&lt;/font&gt;" style="ellipse;whiteSpace=wrap;html=1;fillColor=#fff2cc;strokeColor=#d6b656;" vertex="1" parent="1">
          <mxGeometry x="354" y="400" width="40" height="40" as="geometry" />
        </mxCell>
        <mxCell id="TgXWoHeMjRvl59_JWQMc-20" value="Fax" style="ellipse;whiteSpace=wrap;html=1;fillColor=#fff2cc;strokeColor=#d6b656;" vertex="1" parent="1">
          <mxGeometry x="314" y="440" width="40" height="40" as="geometry" />
        </mxCell>
        <mxCell id="TgXWoHeMjRvl59_JWQMc-21" value="&lt;font style=&quot;font-size: 8px;&quot;&gt;Población&lt;/font&gt;" style="ellipse;whiteSpace=wrap;html=1;fillColor=#fff2cc;strokeColor=#d6b656;" vertex="1" parent="1">
          <mxGeometry x="474" y="440" width="40" height="40" as="geometry" />
        </mxCell>
        <mxCell id="TgXWoHeMjRvl59_JWQMc-22" value="" style="endArrow=none;html=1;rounded=0;fillColor=#fff2cc;strokeColor=#d6b656;" edge="1" parent="1" target="TgXWoHeMjRvl59_JWQMc-21">
          <mxGeometry width="50" height="50" relative="1" as="geometry">
            <mxPoint x="414" y="500" as="sourcePoint" />
            <mxPoint x="464" y="450" as="targetPoint" />
          </mxGeometry>
        </mxCell>
        <mxCell id="TgXWoHeMjRvl59_JWQMc-23" value="" style="endArrow=none;html=1;rounded=0;fillColor=#fff2cc;strokeColor=#d6b656;" edge="1" parent="1" target="TgXWoHeMjRvl59_JWQMc-18">
          <mxGeometry width="50" height="50" relative="1" as="geometry">
            <mxPoint x="414" y="500" as="sourcePoint" />
            <mxPoint x="464" y="450" as="targetPoint" />
          </mxGeometry>
        </mxCell>
        <mxCell id="TgXWoHeMjRvl59_JWQMc-24" value="" style="endArrow=none;html=1;rounded=0;fillColor=#fff2cc;strokeColor=#d6b656;" edge="1" parent="1" target="TgXWoHeMjRvl59_JWQMc-17">
          <mxGeometry width="50" height="50" relative="1" as="geometry">
            <mxPoint x="414" y="500" as="sourcePoint" />
            <mxPoint x="464" y="450" as="targetPoint" />
          </mxGeometry>
        </mxCell>
        <mxCell id="TgXWoHeMjRvl59_JWQMc-25" value="" style="endArrow=none;html=1;rounded=0;fillColor=#fff2cc;strokeColor=#d6b656;" edge="1" parent="1" target="TgXWoHeMjRvl59_JWQMc-20">
          <mxGeometry width="50" height="50" relative="1" as="geometry">
            <mxPoint x="414" y="500" as="sourcePoint" />
            <mxPoint x="464" y="450" as="targetPoint" />
          </mxGeometry>
        </mxCell>
        <mxCell id="TgXWoHeMjRvl59_JWQMc-26" value="" style="endArrow=none;html=1;rounded=0;fillColor=#fff2cc;strokeColor=#d6b656;" edge="1" parent="1" target="TgXWoHeMjRvl59_JWQMc-19">
          <mxGeometry width="50" height="50" relative="1" as="geometry">
            <mxPoint x="414" y="500" as="sourcePoint" />
            <mxPoint x="464" y="450" as="targetPoint" />
          </mxGeometry>
        </mxCell>
        <mxCell id="TgXWoHeMjRvl59_JWQMc-27" value="&lt;font style=&quot;font-size: 8px;&quot;&gt;Provincia&lt;/font&gt;" style="ellipse;whiteSpace=wrap;html=1;fillColor=#fff2cc;strokeColor=#d6b656;" vertex="1" parent="1">
          <mxGeometry x="130" y="730" width="40" height="40" as="geometry" />
        </mxCell>
        <mxCell id="TgXWoHeMjRvl59_JWQMc-28" value="&lt;div style=&quot;font-size: 8px;&quot;&gt;&lt;font style=&quot;font-size: 8px;&quot;&gt;Comunidad&lt;/font&gt;&lt;/div&gt;&lt;div style=&quot;font-size: 8px;&quot;&gt;&lt;font style=&quot;font-size: 8px;&quot;&gt;Autónoma&lt;font style=&quot;font-size: 8px;&quot;&gt;&lt;br&gt;&lt;/font&gt;&lt;/font&gt;&lt;/div&gt;" style="ellipse;whiteSpace=wrap;html=1;fillColor=#fff2cc;strokeColor=#d6b656;" vertex="1" parent="1">
          <mxGeometry x="180" y="760" width="40" height="40" as="geometry" />
        </mxCell>
        <mxCell id="TgXWoHeMjRvl59_JWQMc-29" value="Portes" style="ellipse;whiteSpace=wrap;html=1;fillColor=#fff2cc;strokeColor=#d6b656;" vertex="1" parent="1">
          <mxGeometry x="120" y="680" width="40" height="40" as="geometry" />
        </mxCell>
        <mxCell id="TgXWoHeMjRvl59_JWQMc-33" value="Pais" style="ellipse;whiteSpace=wrap;html=1;fillColor=#fff2cc;strokeColor=#d6b656;" vertex="1" parent="1">
          <mxGeometry x="679" y="680" width="40" height="40" as="geometry" />
        </mxCell>
        <mxCell id="TgXWoHeMjRvl59_JWQMc-34" value="&lt;div style=&quot;font-size: 6px;&quot;&gt;&lt;font style=&quot;font-size: 6px;&quot;&gt;CIF &lt;br&gt;&lt;/font&gt;&lt;/div&gt;&lt;div style=&quot;font-size: 6px;&quot;&gt;&lt;font style=&quot;font-size: 6px;&quot;&gt;Internacional&lt;font style=&quot;font-size: 6px;&quot;&gt;&lt;br&gt;&lt;/font&gt;&lt;/font&gt;&lt;/div&gt;" style="ellipse;whiteSpace=wrap;html=1;fillColor=#fff2cc;strokeColor=#d6b656;" vertex="1" parent="1">
          <mxGeometry x="679" y="730" width="40" height="40" as="geometry" />
        </mxCell>
        <mxCell id="TgXWoHeMjRvl59_JWQMc-35" value="&lt;div style=&quot;font-size: 8px;&quot;&gt;&lt;font style=&quot;font-size: 8px;&quot;&gt;Nombre &lt;br&gt;&lt;/font&gt;&lt;/div&gt;&lt;div style=&quot;font-size: 8px;&quot;&gt;&lt;font style=&quot;font-size: 8px;&quot;&gt;persona&lt;/font&gt;&lt;/div&gt;&lt;div style=&quot;font-size: 8px;&quot;&gt;&lt;font style=&quot;font-size: 8px;&quot;&gt;çontacto&lt;font style=&quot;font-size: 8px;&quot;&gt;&lt;br&gt;&lt;/font&gt;&lt;/font&gt;&lt;/div&gt;" style="ellipse;whiteSpace=wrap;html=1;fillColor=#fff2cc;strokeColor=#d6b656;" vertex="1" parent="1">
          <mxGeometry x="639" y="760" width="40" height="40" as="geometry" />
        </mxCell>
        <mxCell id="TgXWoHeMjRvl59_JWQMc-40" value="Producto" style="rounded=1;whiteSpace=wrap;html=1;fillColor=#dae8fc;strokeColor=#6c8ebf;" vertex="1" parent="1">
          <mxGeometry x="40" y="200" width="120" height="60" as="geometry" />
        </mxCell>
        <mxCell id="TgXWoHeMjRvl59_JWQMc-48" value="" style="endArrow=none;html=1;rounded=0;fillColor=#fff2cc;strokeColor=#d6b656;" edge="1" parent="1" target="TgXWoHeMjRvl59_JWQMc-3">
          <mxGeometry width="50" height="50" relative="1" as="geometry">
            <mxPoint x="160" y="700" as="sourcePoint" />
            <mxPoint x="210" y="650" as="targetPoint" />
          </mxGeometry>
        </mxCell>
        <mxCell id="TgXWoHeMjRvl59_JWQMc-49" value="" style="endArrow=none;html=1;rounded=0;fillColor=#fff2cc;strokeColor=#d6b656;" edge="1" parent="1" source="TgXWoHeMjRvl59_JWQMc-27" target="TgXWoHeMjRvl59_JWQMc-3">
          <mxGeometry width="50" height="50" relative="1" as="geometry">
            <mxPoint x="160" y="740" as="sourcePoint" />
            <mxPoint x="210" y="690" as="targetPoint" />
          </mxGeometry>
        </mxCell>
        <mxCell id="TgXWoHeMjRvl59_JWQMc-50" value="" style="endArrow=none;html=1;rounded=0;fillColor=#fff2cc;strokeColor=#d6b656;" edge="1" parent="1" target="TgXWoHeMjRvl59_JWQMc-3">
          <mxGeometry width="50" height="50" relative="1" as="geometry">
            <mxPoint x="200" y="760" as="sourcePoint" />
            <mxPoint x="250" y="710" as="targetPoint" />
          </mxGeometry>
        </mxCell>
        <mxCell id="TgXWoHeMjRvl59_JWQMc-51" value="" style="endArrow=none;html=1;rounded=0;fillColor=#fff2cc;strokeColor=#d6b656;" edge="1" parent="1" target="TgXWoHeMjRvl59_JWQMc-4">
          <mxGeometry width="50" height="50" relative="1" as="geometry">
            <mxPoint x="679" y="700" as="sourcePoint" />
            <mxPoint x="729" y="650" as="targetPoint" />
          </mxGeometry>
        </mxCell>
        <mxCell id="TgXWoHeMjRvl59_JWQMc-52" value="" style="endArrow=none;html=1;rounded=0;fillColor=#fff2cc;strokeColor=#d6b656;" edge="1" parent="1" target="TgXWoHeMjRvl59_JWQMc-4">
          <mxGeometry width="50" height="50" relative="1" as="geometry">
            <mxPoint x="679" y="750" as="sourcePoint" />
            <mxPoint x="729" y="700" as="targetPoint" />
          </mxGeometry>
        </mxCell>
        <mxCell id="TgXWoHeMjRvl59_JWQMc-53" value="" style="endArrow=none;html=1;rounded=0;fillColor=#fff2cc;strokeColor=#d6b656;" edge="1" parent="1" source="TgXWoHeMjRvl59_JWQMc-35" target="TgXWoHeMjRvl59_JWQMc-4">
          <mxGeometry width="50" height="50" relative="1" as="geometry">
            <mxPoint x="649" y="770" as="sourcePoint" />
            <mxPoint x="699" y="720" as="targetPoint" />
          </mxGeometry>
        </mxCell>
        <mxCell id="TgXWoHeMjRvl59_JWQMc-54" value="Producto" style="rounded=1;whiteSpace=wrap;html=1;fillColor=#dae8fc;strokeColor=#6c8ebf;" vertex="1" parent="1">
          <mxGeometry x="519" y="900" width="120" height="60" as="geometry" />
        </mxCell>
        <mxCell id="TgXWoHeMjRvl59_JWQMc-56" value="Provee" style="rhombus;whiteSpace=wrap;html=1;fillColor=#f8cecc;strokeColor=#b85450;" vertex="1" parent="1">
          <mxGeometry x="559" y="800" width="40" height="40" as="geometry" />
        </mxCell>
        <mxCell id="TgXWoHeMjRvl59_JWQMc-57" value="&lt;font style=&quot;font-size: 10px;&quot;&gt;Compra&lt;/font&gt;" style="rhombus;whiteSpace=wrap;html=1;fillColor=#f8cecc;strokeColor=#b85450;" vertex="1" parent="1">
          <mxGeometry x="200" y="120" width="40" height="40" as="geometry" />
        </mxCell>
        <mxCell id="TgXWoHeMjRvl59_JWQMc-60" value="" style="endArrow=none;html=1;rounded=0;" edge="1" parent="1" target="TgXWoHeMjRvl59_JWQMc-4">
          <mxGeometry width="50" height="50" relative="1" as="geometry">
            <mxPoint x="579" y="800" as="sourcePoint" />
            <mxPoint x="629" y="750" as="targetPoint" />
          </mxGeometry>
        </mxCell>
        <mxCell id="TgXWoHeMjRvl59_JWQMc-62" value="" style="endArrow=none;html=1;rounded=0;" edge="1" parent="1" source="TgXWoHeMjRvl59_JWQMc-54">
          <mxGeometry width="50" height="50" relative="1" as="geometry">
            <mxPoint x="579" y="950" as="sourcePoint" />
            <mxPoint x="579" y="840" as="targetPoint" />
          </mxGeometry>
        </mxCell>
        <mxCell id="TgXWoHeMjRvl59_JWQMc-66" value="&lt;font style=&quot;font-size: 10px;&quot;&gt;Código&lt;/font&gt;" style="ellipse;whiteSpace=wrap;html=1;fillColor=#fff2cc;strokeColor=#d6b656;" vertex="1" parent="1">
          <mxGeometry x="514" y="1000" width="40" height="40" as="geometry" />
        </mxCell>
        <mxCell id="TgXWoHeMjRvl59_JWQMc-67" value="&lt;font style=&quot;font-size: 8px;&quot;&gt;Descripción&lt;/font&gt;" style="ellipse;whiteSpace=wrap;html=1;fillColor=#fff2cc;strokeColor=#d6b656;" vertex="1" parent="1">
          <mxGeometry x="559" y="1000" width="40" height="40" as="geometry" />
        </mxCell>
        <mxCell id="TgXWoHeMjRvl59_JWQMc-68" value="Coste" style="ellipse;whiteSpace=wrap;html=1;fillColor=#fff2cc;strokeColor=#d6b656;" vertex="1" parent="1">
          <mxGeometry x="605" y="1000" width="40" height="40" as="geometry" />
        </mxCell>
        <mxCell id="TgXWoHeMjRvl59_JWQMc-69" value="" style="endArrow=none;html=1;rounded=0;fillColor=#fff2cc;strokeColor=#d6b656;" edge="1" parent="1" target="TgXWoHeMjRvl59_JWQMc-54">
          <mxGeometry width="50" height="50" relative="1" as="geometry">
            <mxPoint x="535" y="1000" as="sourcePoint" />
            <mxPoint x="585" y="950" as="targetPoint" />
          </mxGeometry>
        </mxCell>
        <mxCell id="TgXWoHeMjRvl59_JWQMc-70" value="" style="endArrow=none;html=1;rounded=0;fillColor=#fff2cc;strokeColor=#d6b656;" edge="1" parent="1" source="TgXWoHeMjRvl59_JWQMc-67" target="TgXWoHeMjRvl59_JWQMc-54">
          <mxGeometry width="50" height="50" relative="1" as="geometry">
            <mxPoint x="585" y="1000" as="sourcePoint" />
            <mxPoint x="635" y="950" as="targetPoint" />
          </mxGeometry>
        </mxCell>
        <mxCell id="TgXWoHeMjRvl59_JWQMc-71" value="" style="endArrow=none;html=1;rounded=0;fillColor=#fff2cc;strokeColor=#d6b656;" edge="1" parent="1" source="TgXWoHeMjRvl59_JWQMc-68" target="TgXWoHeMjRvl59_JWQMc-54">
          <mxGeometry width="50" height="50" relative="1" as="geometry">
            <mxPoint x="635" y="1000" as="sourcePoint" />
            <mxPoint x="685" y="950" as="targetPoint" />
          </mxGeometry>
        </mxCell>
        <mxCell id="TgXWoHeMjRvl59_JWQMc-72" value="1:1" style="text;html=1;strokeColor=none;fillColor=none;align=center;verticalAlign=middle;whiteSpace=wrap;rounded=0;" vertex="1" parent="1">
          <mxGeometry x="575" y="860" width="60" height="30" as="geometry" />
        </mxCell>
        <mxCell id="TgXWoHeMjRvl59_JWQMc-73" value="1:1" style="text;html=1;strokeColor=none;fillColor=none;align=center;verticalAlign=middle;whiteSpace=wrap;rounded=0;" vertex="1" parent="1">
          <mxGeometry x="585" y="805" width="60" height="30" as="geometry" />
        </mxCell>
        <mxCell id="TgXWoHeMjRvl59_JWQMc-74" value="1:1" style="text;html=1;strokeColor=none;fillColor=none;align=center;verticalAlign=middle;whiteSpace=wrap;rounded=0;" vertex="1" parent="1">
          <mxGeometry x="565" y="750" width="60" height="30" as="geometry" />
        </mxCell>
        <mxCell id="TgXWoHeMjRvl59_JWQMc-80" value="&lt;div style=&quot;font-size: 7px;&quot;&gt;&lt;font style=&quot;font-size: 7px;&quot;&gt;Productos&lt;/font&gt;&lt;/div&gt;&lt;div style=&quot;font-size: 7px;&quot;&gt;&lt;font style=&quot;font-size: 7px;&quot;&gt;demanda&lt;/font&gt;&lt;/div&gt;&lt;div style=&quot;font-size: 7px;&quot;&gt;&lt;font style=&quot;font-size: 7px;&quot;&gt;futura&lt;font style=&quot;font-size: 7px;&quot;&gt;&lt;br&gt;&lt;/font&gt;&lt;/font&gt;&lt;/div&gt;" style="ellipse;whiteSpace=wrap;html=1;aspect=fixed;fillColor=#fff2cc;strokeColor=#d6b656;" vertex="1" parent="1">
          <mxGeometry x="374" y="750" width="40" height="40" as="geometry" />
        </mxCell>
        <mxCell id="TgXWoHeMjRvl59_JWQMc-81" value="&lt;div style=&quot;font-size: 8px;&quot;&gt;&lt;font style=&quot;font-size: 8px;&quot;&gt;Cierra&lt;/font&gt;&lt;/div&gt;&lt;div style=&quot;font-size: 8px;&quot;&gt;&lt;font style=&quot;font-size: 8px;&quot;&gt;acuerdo&lt;font style=&quot;font-size: 8px;&quot;&gt;&lt;br&gt;&lt;/font&gt;&lt;/font&gt;&lt;/div&gt;" style="rhombus;whiteSpace=wrap;html=1;fillColor=#f8cecc;strokeColor=#b85450;" vertex="1" parent="1">
          <mxGeometry x="200" y="200" width="40" height="40" as="geometry" />
        </mxCell>
        <mxCell id="TgXWoHeMjRvl59_JWQMc-82" value="&lt;div style=&quot;font-size: 8px;&quot;&gt;&lt;font style=&quot;font-size: 8px;&quot;&gt;Cierra&lt;/font&gt;&lt;/div&gt;&lt;div style=&quot;font-size: 8px;&quot;&gt;&lt;font style=&quot;font-size: 8px;&quot;&gt;acuerdo&lt;font style=&quot;font-size: 8px;&quot;&gt;&lt;br&gt;&lt;/font&gt;&lt;/font&gt;&lt;/div&gt;" style="rhombus;whiteSpace=wrap;html=1;fillColor=#f8cecc;strokeColor=#b85450;" vertex="1" parent="1">
          <mxGeometry x="399" y="690" width="40" height="40" as="geometry" />
        </mxCell>
        <mxCell id="TgXWoHeMjRvl59_JWQMc-83" value="" style="endArrow=none;html=1;rounded=0;" edge="1" parent="1" target="TgXWoHeMjRvl59_JWQMc-82">
          <mxGeometry width="50" height="50" relative="1" as="geometry">
            <mxPoint x="320" y="710" as="sourcePoint" />
            <mxPoint x="370" y="660" as="targetPoint" />
          </mxGeometry>
        </mxCell>
        <mxCell id="TgXWoHeMjRvl59_JWQMc-84" value="" style="endArrow=none;html=1;rounded=0;" edge="1" parent="1" source="TgXWoHeMjRvl59_JWQMc-82">
          <mxGeometry width="50" height="50" relative="1" as="geometry">
            <mxPoint x="470" y="760" as="sourcePoint" />
            <mxPoint x="520" y="710" as="targetPoint" />
          </mxGeometry>
        </mxCell>
        <mxCell id="TgXWoHeMjRvl59_JWQMc-85" value="&lt;div style=&quot;font-size: 6px;&quot;&gt;&lt;font style=&quot;font-size: 6px;&quot;&gt;Porcentaje &lt;br&gt;&lt;/font&gt;&lt;/div&gt;&lt;div style=&quot;font-size: 6px;&quot;&gt;&lt;font style=&quot;font-size: 6px;&quot;&gt;de&lt;/font&gt;&lt;/div&gt;&lt;div style=&quot;font-size: 6px;&quot;&gt;&lt;font style=&quot;font-size: 6px;&quot;&gt;recarga&lt;font style=&quot;font-size: 6px;&quot;&gt;&lt;br&gt;&lt;/font&gt;&lt;/font&gt;&lt;/div&gt;" style="ellipse;whiteSpace=wrap;html=1;aspect=fixed;fillColor=#fff2cc;strokeColor=#d6b656;" vertex="1" parent="1">
          <mxGeometry x="424" y="748.5" width="41.5" height="41.5" as="geometry" />
        </mxCell>
        <mxCell id="TgXWoHeMjRvl59_JWQMc-86" value="" style="endArrow=none;html=1;rounded=0;fillColor=#fff2cc;strokeColor=#d6b656;" edge="1" parent="1" source="TgXWoHeMjRvl59_JWQMc-80" target="TgXWoHeMjRvl59_JWQMc-82">
          <mxGeometry width="50" height="50" relative="1" as="geometry">
            <mxPoint x="370" y="780" as="sourcePoint" />
            <mxPoint x="420" y="730" as="targetPoint" />
          </mxGeometry>
        </mxCell>
        <mxCell id="TgXWoHeMjRvl59_JWQMc-87" value="" style="endArrow=none;html=1;rounded=0;fillColor=#fff2cc;strokeColor=#d6b656;" edge="1" parent="1" source="TgXWoHeMjRvl59_JWQMc-85" target="TgXWoHeMjRvl59_JWQMc-82">
          <mxGeometry width="50" height="50" relative="1" as="geometry">
            <mxPoint x="420" y="770" as="sourcePoint" />
            <mxPoint x="470" y="720" as="targetPoint" />
          </mxGeometry>
        </mxCell>
        <mxCell id="TgXWoHeMjRvl59_JWQMc-88" value="&lt;div style=&quot;font-size: 7px;&quot;&gt;&lt;font style=&quot;font-size: 7px;&quot;&gt;Contacto&lt;/font&gt;&lt;/div&gt;&lt;div style=&quot;font-size: 7px;&quot;&gt;&lt;font style=&quot;font-size: 7px;&quot;&gt;nuevo&lt;/font&gt;&lt;/div&gt;&lt;div style=&quot;font-size: 7px;&quot;&gt;&lt;font style=&quot;font-size: 7px;&quot;&gt;proveedor&lt;font style=&quot;font-size: 7px;&quot;&gt;&lt;br&gt;&lt;/font&gt;&lt;/font&gt;&lt;/div&gt;" style="ellipse;whiteSpace=wrap;html=1;aspect=fixed;fillColor=#fff2cc;strokeColor=#d6b656;" vertex="1" parent="1">
          <mxGeometry x="490" y="780" width="41.5" height="41.5" as="geometry" />
        </mxCell>
        <mxCell id="TgXWoHeMjRvl59_JWQMc-89" value="&lt;font style=&quot;font-size: 8px;&quot;&gt;Producto pedido&lt;br&gt;&lt;/font&gt;" style="ellipse;whiteSpace=wrap;html=1;aspect=fixed;fillColor=#fff2cc;strokeColor=#d6b656;" vertex="1" parent="1">
          <mxGeometry x="490" y="821.5" width="41.5" height="41.5" as="geometry" />
        </mxCell>
        <mxCell id="TgXWoHeMjRvl59_JWQMc-90" value="" style="endArrow=none;html=1;rounded=0;fillColor=#fff2cc;strokeColor=#d6b656;" edge="1" parent="1" source="TgXWoHeMjRvl59_JWQMc-89" target="TgXWoHeMjRvl59_JWQMc-56">
          <mxGeometry width="50" height="50" relative="1" as="geometry">
            <mxPoint x="510" y="870" as="sourcePoint" />
            <mxPoint x="560" y="820" as="targetPoint" />
          </mxGeometry>
        </mxCell>
        <mxCell id="TgXWoHeMjRvl59_JWQMc-91" value="" style="endArrow=none;html=1;rounded=0;entryX=0;entryY=0;entryDx=0;entryDy=0;fillColor=#fff2cc;strokeColor=#d6b656;" edge="1" parent="1" source="TgXWoHeMjRvl59_JWQMc-88" target="TgXWoHeMjRvl59_JWQMc-56">
          <mxGeometry width="50" height="50" relative="1" as="geometry">
            <mxPoint x="530" y="800" as="sourcePoint" />
            <mxPoint x="580" y="750" as="targetPoint" />
          </mxGeometry>
        </mxCell>
        <mxCell id="TgXWoHeMjRvl59_JWQMc-99" value="&lt;font style=&quot;font-size: 10px;&quot;&gt;Compra&lt;/font&gt;" style="rhombus;whiteSpace=wrap;html=1;fillColor=#f8cecc;strokeColor=#b85450;" vertex="1" parent="1">
          <mxGeometry x="240" y="910" width="40" height="40" as="geometry" />
        </mxCell>
        <mxCell id="TgXWoHeMjRvl59_JWQMc-100" value="" style="endArrow=none;html=1;rounded=0;" edge="1" parent="1" source="TgXWoHeMjRvl59_JWQMc-99" target="TgXWoHeMjRvl59_JWQMc-3">
          <mxGeometry width="50" height="50" relative="1" as="geometry">
            <mxPoint x="260" y="910" as="sourcePoint" />
            <mxPoint x="310" y="860" as="targetPoint" />
          </mxGeometry>
        </mxCell>
        <mxCell id="TgXWoHeMjRvl59_JWQMc-101" value="" style="endArrow=none;html=1;rounded=0;" edge="1" parent="1" source="TgXWoHeMjRvl59_JWQMc-99" target="TgXWoHeMjRvl59_JWQMc-54">
          <mxGeometry width="50" height="50" relative="1" as="geometry">
            <mxPoint x="280" y="930" as="sourcePoint" />
            <mxPoint x="330" y="880" as="targetPoint" />
          </mxGeometry>
        </mxCell>
        <mxCell id="TgXWoHeMjRvl59_JWQMc-102" value="&lt;font style=&quot;font-size: 12px;&quot;&gt;Fecha&lt;/font&gt;" style="ellipse;whiteSpace=wrap;html=1;fillColor=#fff2cc;strokeColor=#d6b656;" vertex="1" parent="1">
          <mxGeometry x="240" y="960" width="40" height="40" as="geometry" />
        </mxCell>
        <mxCell id="TgXWoHeMjRvl59_JWQMc-103" value="&lt;font style=&quot;font-size: 10px;&quot;&gt;Cantidad&lt;/font&gt;" style="ellipse;whiteSpace=wrap;html=1;fillColor=#fff2cc;strokeColor=#d6b656;" vertex="1" parent="1">
          <mxGeometry x="190" y="910" width="40" height="40" as="geometry" />
        </mxCell>
        <mxCell id="TgXWoHeMjRvl59_JWQMc-104" value="" style="endArrow=none;html=1;rounded=0;fillColor=#fff2cc;strokeColor=#d6b656;" edge="1" parent="1" source="TgXWoHeMjRvl59_JWQMc-103" target="TgXWoHeMjRvl59_JWQMc-99">
          <mxGeometry width="50" height="50" relative="1" as="geometry">
            <mxPoint x="190" y="980" as="sourcePoint" />
            <mxPoint x="240" y="930" as="targetPoint" />
          </mxGeometry>
        </mxCell>
        <mxCell id="TgXWoHeMjRvl59_JWQMc-105" value="" style="endArrow=none;html=1;rounded=0;fillColor=#fff2cc;strokeColor=#d6b656;" edge="1" parent="1" source="TgXWoHeMjRvl59_JWQMc-102" target="TgXWoHeMjRvl59_JWQMc-99">
          <mxGeometry width="50" height="50" relative="1" as="geometry">
            <mxPoint x="210" y="1000" as="sourcePoint" />
            <mxPoint x="260" y="950" as="targetPoint" />
          </mxGeometry>
        </mxCell>
        <mxCell id="TgXWoHeMjRvl59_JWQMc-106" value="1:1" style="text;html=1;strokeColor=none;fillColor=none;align=center;verticalAlign=middle;whiteSpace=wrap;rounded=0;" vertex="1" parent="1">
          <mxGeometry x="454" y="685" width="60" height="30" as="geometry" />
        </mxCell>
        <mxCell id="TgXWoHeMjRvl59_JWQMc-107" value="1:1" style="text;html=1;strokeColor=none;fillColor=none;align=center;verticalAlign=middle;whiteSpace=wrap;rounded=0;" vertex="1" parent="1">
          <mxGeometry x="320" y="685" width="60" height="30" as="geometry" />
        </mxCell>
        <mxCell id="TgXWoHeMjRvl59_JWQMc-108" value="1:1" style="text;html=1;strokeColor=none;fillColor=none;align=center;verticalAlign=middle;whiteSpace=wrap;rounded=0;" vertex="1" parent="1">
          <mxGeometry x="389" y="670" width="60" height="30" as="geometry" />
        </mxCell>
        <mxCell id="TgXWoHeMjRvl59_JWQMc-109" value="1:1" style="text;html=1;strokeColor=none;fillColor=none;align=center;verticalAlign=middle;whiteSpace=wrap;rounded=0;" vertex="1" parent="1">
          <mxGeometry x="250" y="760" width="60" height="30" as="geometry" />
        </mxCell>
        <mxCell id="TgXWoHeMjRvl59_JWQMc-110" value="1:1" style="text;html=1;strokeColor=none;fillColor=none;align=center;verticalAlign=middle;whiteSpace=wrap;rounded=0;" vertex="1" parent="1">
          <mxGeometry x="250" y="900" width="60" height="20" as="geometry" />
        </mxCell>
        <mxCell id="TgXWoHeMjRvl59_JWQMc-111" value="1:1" style="text;html=1;strokeColor=none;fillColor=none;align=center;verticalAlign=middle;whiteSpace=wrap;rounded=0;" vertex="1" parent="1">
          <mxGeometry x="465.5" y="900" width="60" height="30" as="geometry" />
        </mxCell>
      </root>
    </mxGraphModel>
  </diagram>
</mxfile>
